<svg xmlns="http://www.w3.org/2000/svg" viewBox="0 0 1200 720" width="1200" height="720" role="img" aria-label="Binary AI Engine">
<style>
@keyframes fl{0%,100%{transform:translateY(0)}50%{transform:translateY(-7px)}}
@keyframes pu{0%,100%{opacity:1}50%{opacity:.55}}
@keyframes bl{0%,100%{opacity:1}50%{opacity:.35}}
@keyframes ma{to{stroke-dashoffset:-120}}
@keyframes dr{0%{stroke-dashoffset:1000}100%{stroke-dashoffset:0}}
@keyframes be{0%,100%{transform:scale(1)}50%{transform:scale(1.05)}}
.af{animation:fl 9s ease-in-out infinite}
.ap{animation:pu 6s ease-in-out infinite}
.ab{animation:bl 4s ease-in-out infinite}
.am{animation:ma 4.8s linear infinite}
.ad{stroke-dasharray:1000;stroke-dashoffset:1000;animation:dr 10s ease-in-out infinite alternate}
.abe{transform-box:fill-box;transform-origin:center;animation:be 6s ease-in-out infinite}
@media (prefers-reduced-motion:reduce){.af,.ap,.ab,.am,.ad,.abe{animation:none}.ad{stroke-dashoffset:0}}
</style>
<defs>
  <linearGradient id="bg" x1="0" y1="0" x2="1" y2="1">
    <stop offset="0" stop-color="#101018"/>
    <stop offset="1" stop-color="#0a0a10"/>
  </linearGradient>
  <linearGradient id="acc" x1="0" y1="0" x2="1" y2="1">
    <stop offset="0" stop-color="#8b5cf6"/>
    <stop offset="1" stop-color="#d946ef"/>
  </linearGradient>
  <linearGradient id="accSoft" x1="0" y1="0" x2="0" y2="1">
    <stop offset="0" stop-color="#8b5cf6" stop-opacity="0.30"/>
    <stop offset="1" stop-color="#8b5cf6" stop-opacity="0"/>
  </linearGradient>
  <radialGradient id="glowA" cx="0.5" cy="0.5" r="0.5">
    <stop offset="0" stop-color="#8b5cf6" stop-opacity="0.35"/>
    <stop offset="1" stop-color="#8b5cf6" stop-opacity="0"/>
  </radialGradient>
  <radialGradient id="glowB" cx="0.5" cy="0.5" r="0.5">
    <stop offset="0" stop-color="#d946ef" stop-opacity="0.28"/>
    <stop offset="1" stop-color="#d946ef" stop-opacity="0"/>
  </radialGradient>
</defs>
<rect width="1200" height="720" fill="url(#bg)"/>
<line x1="40" y1="0" x2="40" y2="720" stroke="#ffffff" stroke-opacity="0.025"/><line x1="88" y1="0" x2="88" y2="720" stroke="#ffffff" stroke-opacity="0.025"/><line x1="136" y1="0" x2="136" y2="720" stroke="#ffffff" stroke-opacity="0.025"/><line x1="184" y1="0" x2="184" y2="720" stroke="#ffffff" stroke-opacity="0.025"/><line x1="232" y1="0" x2="232" y2="720" stroke="#ffffff" stroke-opacity="0.025"/><line x1="280" y1="0" x2="280" y2="720" stroke="#ffffff" stroke-opacity="0.025"/><line x1="328" y1="0" x2="328" y2="720" stroke="#ffffff" stroke-opacity="0.025"/><line x1="376" y1="0" x2="376" y2="720" stroke="#ffffff" stroke-opacity="0.025"/><line x1="424" y1="0" x2="424" y2="720" stroke="#ffffff" stroke-opacity="0.025"/><line x1="472" y1="0" x2="472" y2="720" stroke="#ffffff" stroke-opacity="0.025"/><line x1="520" y1="0" x2="520" y2="720" stroke="#ffffff" stroke-opacity="0.025"/><line x1="568" y1="0" x2="568" y2="720" stroke="#ffffff" stroke-opacity="0.025"/><line x1="616" y1="0" x2="616" y2="720" stroke="#ffffff" stroke-opacity="0.025"/><line x1="664" y1="0" x2="664" y2="720" stroke="#ffffff" stroke-opacity="0.025"/><line x1="712" y1="0" x2="712" y2="720" stroke="#ffffff" stroke-opacity="0.025"/><line x1="760" y1="0" x2="760" y2="720" stroke="#ffffff" stroke-opacity="0.025"/><line x1="808" y1="0" x2="808" y2="720" stroke="#ffffff" stroke-opacity="0.025"/><line x1="856" y1="0" x2="856" y2="720" stroke="#ffffff" stroke-opacity="0.025"/><line x1="904" y1="0" x2="904" y2="720" stroke="#ffffff" stroke-opacity="0.025"/><line x1="952" y1="0" x2="952" y2="720" stroke="#ffffff" stroke-opacity="0.025"/><line x1="1000" y1="0" x2="1000" y2="720" stroke="#ffffff" stroke-opacity="0.025"/><line x1="1048" y1="0" x2="1048" y2="720" stroke="#ffffff" stroke-opacity="0.025"/><line x1="1096" y1="0" x2="1096" y2="720" stroke="#ffffff" stroke-opacity="0.025"/><line x1="1144" y1="0" x2="1144" y2="720" stroke="#ffffff" stroke-opacity="0.025"/><line x1="1192" y1="0" x2="1192" y2="720" stroke="#ffffff" stroke-opacity="0.025"/><line x1="0" y1="40" x2="1200" y2="40" stroke="#ffffff" stroke-opacity="0.025"/><line x1="0" y1="88" x2="1200" y2="88" stroke="#ffffff" stroke-opacity="0.025"/><line x1="0" y1="136" x2="1200" y2="136" stroke="#ffffff" stroke-opacity="0.025"/><line x1="0" y1="184" x2="1200" y2="184" stroke="#ffffff" stroke-opacity="0.025"/><line x1="0" y1="232" x2="1200" y2="232" stroke="#ffffff" stroke-opacity="0.025"/><line x1="0" y1="280" x2="1200" y2="280" stroke="#ffffff" stroke-opacity="0.025"/><line x1="0" y1="328" x2="1200" y2="328" stroke="#ffffff" stroke-opacity="0.025"/><line x1="0" y1="376" x2="1200" y2="376" stroke="#ffffff" stroke-opacity="0.025"/><line x1="0" y1="424" x2="1200" y2="424" stroke="#ffffff" stroke-opacity="0.025"/><line x1="0" y1="472" x2="1200" y2="472" stroke="#ffffff" stroke-opacity="0.025"/><line x1="0" y1="520" x2="1200" y2="520" stroke="#ffffff" stroke-opacity="0.025"/><line x1="0" y1="568" x2="1200" y2="568" stroke="#ffffff" stroke-opacity="0.025"/><line x1="0" y1="616" x2="1200" y2="616" stroke="#ffffff" stroke-opacity="0.025"/><line x1="0" y1="664" x2="1200" y2="664" stroke="#ffffff" stroke-opacity="0.025"/><line x1="0" y1="712" x2="1200" y2="712" stroke="#ffffff" stroke-opacity="0.025"/>
<ellipse class="ap" cx="200" cy="40" rx="560" ry="330" fill="url(#glowA)"/>
<ellipse class="ap" cx="1080" cy="700" rx="520" ry="320" fill="url(#glowB)" style="animation-delay:1.6s"/>
<g opacity="0.97">
<g>
  <rect x="596" y="110" width="560" height="460" rx="18" fill="#000" opacity="0.4"/>
  <rect x="590" y="100" width="560" height="460" rx="18" fill="#14141d" fill-opacity="0.94" stroke="#ffffff" stroke-opacity="0.12"/>
  <rect x="590" y="100" width="560" height="46" rx="18" fill="#ffffff" fill-opacity="0.03"/>
  <line x1="590" y1="146" x2="1150" y2="146" stroke="#ffffff" stroke-opacity="0.08"/>
  <circle cx="614" cy="123" r="5.5" fill="#fb7185" opacity="0.9"/>
  <circle cx="633" cy="123" r="5.5" fill="#fbbf24" opacity="0.9"/>
  <circle cx="652" cy="123" r="5.5" fill="#34d399" opacity="0.9"/>
  <text x="658" y="130" font-family="Inter, 'Segoe UI', -apple-system, system-ui, sans-serif" font-size="16" font-weight="600" fill="#ffffff" fill-opacity="0.55">AI Engine · Adaptive</text>
</g>
<g>
  <line x1="660" y1="176" x2="716" y2="186" stroke="#8b5cf6" stroke-opacity="0.35" stroke-width="1.5"/>
  <line x1="660" y1="176" x2="716" y2="222" stroke="#8b5cf6" stroke-opacity="0.35" stroke-width="1.5"/>
  <line x1="660" y1="204" x2="716" y2="186" stroke="#8b5cf6" stroke-opacity="0.35" stroke-width="1.5"/>
  <line x1="660" y1="204" x2="716" y2="222" stroke="#8b5cf6" stroke-opacity="0.35" stroke-width="1.5"/>
  <line x1="660" y1="232" x2="716" y2="186" stroke="#8b5cf6" stroke-opacity="0.35" stroke-width="1.5"/>
  <line x1="660" y1="232" x2="716" y2="222" stroke="#8b5cf6" stroke-opacity="0.35" stroke-width="1.5"/>
  <line x1="716" y1="186" x2="770" y2="200" stroke="#d946ef" stroke-opacity="0.5" stroke-width="1.5" stroke-dasharray="3 6" class="am"/>
  <line x1="716" y1="222" x2="770" y2="209" stroke="#d946ef" stroke-opacity="0.5" stroke-width="1.5" stroke-dasharray="3 6" class="am"/>
  <circle cx="660" cy="176" r="5.5" fill="#8b5cf6" fill-opacity="0.5"/>
  <circle cx="660" cy="204" r="5.5" fill="#8b5cf6" fill-opacity="0.5"/>
  <circle cx="660" cy="232" r="5.5" fill="#8b5cf6" fill-opacity="0.5"/>
  <circle cx="716" cy="186" r="7" fill="#8b5cf6" fill-opacity="0.8"/>
  <circle cx="716" cy="222" r="7" fill="#8b5cf6" fill-opacity="0.8"/>
  <circle class="ap" cx="786" cy="204" r="30" fill="#d946ef" fill-opacity="0.12"/>
  <g class="abe">
    <circle cx="786" cy="204" r="18" fill="url(#acc)"/>
    <text x="786" y="210" text-anchor="middle" font-family="Inter, 'Segoe UI', -apple-system, system-ui, sans-serif" font-size="16" font-weight="800" fill="#ffffff">AI</text>
  </g>
  <text x="826" y="209" font-family="Inter, 'Segoe UI', -apple-system, system-ui, sans-serif" font-size="15" fill="#ffffff" fill-opacity="0.5">ML optimizer · adaptive win rate</text>
</g>
<rect x="630" y="252" width="480" height="83" fill="#34d399" fill-opacity="0.06"/>
<rect x="630" y="335" width="480" height="83" fill="#fb7185" fill-opacity="0.06"/>
<text x="644" y="276" font-family="Inter, 'Segoe UI', -apple-system, system-ui, sans-serif" font-size="15" font-weight="700" fill="#34d399" fill-opacity="0.8">CALL</text>
<text x="644" y="412" font-family="Inter, 'Segoe UI', -apple-system, system-ui, sans-serif" font-size="15" font-weight="700" fill="#fb7185" fill-opacity="0.8">PUT</text>
<path d="M 630 390 L 672 372 L 716 384 L 760 360 L 804 368 L 848 346 L 892 354 L 940 335 L 940 418 L 630 418 Z" fill="url(#accSoft)"/>
<line x1="630" y1="335" x2="1110" y2="335" stroke="#8b5cf6" stroke-width="2" stroke-dasharray="2 10" class="am" stroke-opacity="0.6"/>
<text x="1108" y="327" text-anchor="end" font-family="Inter, 'Segoe UI', -apple-system, system-ui, sans-serif" font-size="13" fill="#ffffff" fill-opacity="0.45">strike 1.0842</text>
<line x1="940" y1="252" x2="940" y2="418" stroke="#ffffff" stroke-opacity="0.15" stroke-dasharray="4 6"/>
<path d="M 630 390 C 650 390, 650 372, 672 372 C 694 372, 694 384, 716 384 C 738 384, 738 360, 760 360 C 782 360, 782 368, 804 368 C 826 368, 826 346, 848 346 C 870 346, 870 354, 892 354 C 914 354, 914 335, 940 335" fill="none" stroke="#8b5cf6" stroke-width="3.5" stroke-linecap="round" class="ad" pathLength="1000"/>
<g class="ap">
  <path d="M 940 335 C 990 322, 1030 300, 1096 274" fill="none" stroke="#34d399" stroke-width="3" stroke-linecap="round"/>
  <path d="M 1106 270 L 1090 267 L 1095 281 Z" fill="#34d399"/>
</g>
<g class="ap" style="animation-delay:1.6s">
  <path d="M 940 335 C 990 348, 1030 372, 1096 398" fill="none" stroke="#fb7185" stroke-width="3" stroke-linecap="round" stroke-dasharray="7 7"/>
  <path d="M 1106 402 L 1090 405 L 1095 391 Z" fill="#fb7185"/>
</g>
<circle class="ab" cx="940" cy="335" r="11" fill="#d946ef" fill-opacity="0.3"/>
<circle cx="940" cy="335" r="6" fill="#d946ef" stroke="#ffffff" stroke-width="2"/>
<g>
  <rect x="630" y="432" width="140" height="34" rx="17" fill="#34d399" fill-opacity="0.15" stroke="#34d399" stroke-opacity="0.4"/>
  <text x="700" y="454.5" text-anchor="middle" font-family="Inter, 'Segoe UI', -apple-system, system-ui, sans-serif" font-size="15" font-weight="700" fill="#34d399">CALL 62%</text>
</g>
<g>
  <rect x="790" y="432" width="140" height="34" rx="17" fill="#fb7185" fill-opacity="0.15" stroke="#fb7185" stroke-opacity="0.4"/>
  <text x="860" y="454.5" text-anchor="middle" font-family="Inter, 'Segoe UI', -apple-system, system-ui, sans-serif" font-size="15" font-weight="700" fill="#fb7185">PUT 38%</text>
</g>
<text x="952" y="454" font-family="Inter, 'Segoe UI', -apple-system, system-ui, sans-serif" font-size="15" fill="#ffffff" fill-opacity="0.5">expiry 60s · payout 87%</text>
<g>
  <rect x="630" y="492" width="150" height="31.5" rx="15.75" fill="#8b5cf6" fill-opacity="0.15" stroke="#8b5cf6" stroke-opacity="0.4"/>
  <text x="705" y="513.6" text-anchor="middle" font-family="Inter, 'Segoe UI', -apple-system, system-ui, sans-serif" font-size="15" font-weight="700" fill="#8b5cf6">Win rate 62.4%</text>
</g>
<g>
  <rect x="800" y="492" width="144" height="31.5" rx="15.75" fill="#d946ef" fill-opacity="0.15" stroke="#d946ef" stroke-opacity="0.4"/>
  <text x="872" y="513.6" text-anchor="middle" font-family="Inter, 'Segoe UI', -apple-system, system-ui, sans-serif" font-size="15" font-weight="700" fill="#d946ef">A/B: variant B</text>
</g>
<g class="ap">
  <rect x="964" y="492" width="96" height="31.5" rx="15.75" fill="#34d399" fill-opacity="0.15" stroke="#34d399" stroke-opacity="0.4"/>
  <text x="1012" y="513.6" text-anchor="middle" font-family="Inter, 'Segoe UI', -apple-system, system-ui, sans-serif" font-size="15" font-weight="700" fill="#34d399">Cohorts</text>
</g></g>
<g>
  <rect x="64" y="52" width="46" height="46" rx="13" fill="url(#acc)"/>
  <text x="87" y="84" text-anchor="middle" font-family="Inter, 'Segoe UI', -apple-system, system-ui, sans-serif" font-size="26" font-weight="900" fill="#fff">M</text>
  <text x="124" y="82" font-family="Inter, 'Segoe UI', -apple-system, system-ui, sans-serif" font-size="18" font-weight="800" letter-spacing="3.5" fill="#ffffff" fill-opacity="0.9">MASHDIV</text>
</g>
<g>
  <rect x="64" y="206" width="80.5" height="31.5" rx="15.75" fill="#8b5cf6" fill-opacity="0.15" stroke="#8b5cf6" stroke-opacity="0.4"/>
  <text x="104.25" y="227.6" text-anchor="middle" font-family="Inter, 'Segoe UI', -apple-system, system-ui, sans-serif" font-size="15" font-weight="700" fill="#8b5cf6">ADDON</text>
</g>
<text x="64" y="300" font-family="Inter, 'Segoe UI', -apple-system, system-ui, sans-serif" font-size="64" font-weight="800" letter-spacing="-2" fill="#ffffff">Binary AI</text>
<text x="64" y="374" font-family="Inter, 'Segoe UI', -apple-system, system-ui, sans-serif" font-size="64" font-weight="800" letter-spacing="-2" fill="#ffffff">Engine</text>
<text x="64" y="430" font-family="Inter, 'Segoe UI', -apple-system, system-ui, sans-serif" font-size="27" fill="#ffffff" fill-opacity="0.72">Adaptive AI engine for binary options</text>
<text x="64" y="468" font-family="Inter, 'Segoe UI', -apple-system, system-ui, sans-serif" font-size="27" fill="#ffffff" fill-opacity="0.72">with ML-optimized win rates.</text>
<g>
  <circle class="ab" cx="72" cy="642" r="5" fill="#34d399"/>
  <text x="88" y="649" font-family="Inter, 'Segoe UI', -apple-system, system-ui, sans-serif" font-size="19" fill="#ffffff" fill-opacity="0.55">Instant delivery · Lifetime updates</text>
</g>
</svg>
