<svg xmlns="http://www.w3.org/2000/svg" viewBox="0 0 1200 720" width="1200" height="720" role="img" aria-label="Ecosystem">
<style>
@keyframes fl{0%,100%{transform:translateY(0)}50%{transform:translateY(-7px)}}
@keyframes pu{0%,100%{opacity:1}50%{opacity:.55}}
@keyframes bl{0%,100%{opacity:1}50%{opacity:.35}}
@keyframes ma{to{stroke-dashoffset:-120}}
@keyframes dr{0%{stroke-dashoffset:1000}100%{stroke-dashoffset:0}}
@keyframes be{0%,100%{transform:scale(1)}50%{transform:scale(1.05)}}
@keyframes eq{0%,100%{transform:scaleY(1)}50%{transform:scaleY(.62)}}
@keyframes sp{to{transform:rotate(360deg)}}
@keyframes px{0%,100%{transform:scaleX(.78)}50%{transform:scaleX(1)}}
@keyframes fk{0%,100%{transform:scaleY(1);opacity:.85}50%{transform:scaleY(1.22);opacity:1}}
.af{animation:fl 9s ease-in-out infinite}
.ap{animation:pu 6s ease-in-out infinite}
.ab{animation:bl 4s ease-in-out infinite}
.am{animation:ma 4.8s linear infinite}
.ad{stroke-dasharray:1000;stroke-dashoffset:1000;animation:dr 10s ease-in-out infinite alternate}
.abe{transform-box:fill-box;transform-origin:center;animation:be 6s ease-in-out infinite}
.aq{transform-box:fill-box;transform-origin:center bottom;animation:eq 4s ease-in-out infinite}
.asp{transform-box:fill-box;transform-origin:center;animation:sp 30s linear infinite}
.apx{transform-box:fill-box;transform-origin:left center;animation:px 8s ease-in-out infinite}
.afk{transform-box:fill-box;transform-origin:center top;animation:fk 1.6s ease-in-out infinite}
@media (prefers-reduced-motion:reduce){.af,.ap,.ab,.am,.ad,.abe,.aq,.asp,.apx,.afk{animation:none}.ad{stroke-dashoffset:0}}
</style>
<defs>
  <linearGradient id="bg" x1="0" y1="0" x2="1" y2="1">
    <stop offset="0" stop-color="#101018"/>
    <stop offset="1" stop-color="#0a0a10"/>
  </linearGradient>
  <linearGradient id="acc" x1="0" y1="0" x2="1" y2="1">
    <stop offset="0" stop-color="#22d3ee"/>
    <stop offset="1" stop-color="#3b82f6"/>
  </linearGradient>
  <linearGradient id="accSoft" x1="0" y1="0" x2="0" y2="1">
    <stop offset="0" stop-color="#22d3ee" stop-opacity="0.35"/>
    <stop offset="1" stop-color="#22d3ee" stop-opacity="0"/>
  </linearGradient>
  <radialGradient id="glowA" cx="0.5" cy="0.5" r="0.5">
    <stop offset="0" stop-color="#22d3ee" stop-opacity="0.35"/>
    <stop offset="1" stop-color="#22d3ee" stop-opacity="0"/>
  </radialGradient>
  <radialGradient id="glowB" cx="0.5" cy="0.5" r="0.5">
    <stop offset="0" stop-color="#3b82f6" stop-opacity="0.28"/>
    <stop offset="1" stop-color="#3b82f6" stop-opacity="0"/>
  </radialGradient>
</defs>
<rect width="1200" height="720" fill="url(#bg)"/>
<line x1="40" y1="0" x2="40" y2="720" stroke="#ffffff" stroke-opacity="0.025"/><line x1="88" y1="0" x2="88" y2="720" stroke="#ffffff" stroke-opacity="0.025"/><line x1="136" y1="0" x2="136" y2="720" stroke="#ffffff" stroke-opacity="0.025"/><line x1="184" y1="0" x2="184" y2="720" stroke="#ffffff" stroke-opacity="0.025"/><line x1="232" y1="0" x2="232" y2="720" stroke="#ffffff" stroke-opacity="0.025"/><line x1="280" y1="0" x2="280" y2="720" stroke="#ffffff" stroke-opacity="0.025"/><line x1="328" y1="0" x2="328" y2="720" stroke="#ffffff" stroke-opacity="0.025"/><line x1="376" y1="0" x2="376" y2="720" stroke="#ffffff" stroke-opacity="0.025"/><line x1="424" y1="0" x2="424" y2="720" stroke="#ffffff" stroke-opacity="0.025"/><line x1="472" y1="0" x2="472" y2="720" stroke="#ffffff" stroke-opacity="0.025"/><line x1="520" y1="0" x2="520" y2="720" stroke="#ffffff" stroke-opacity="0.025"/><line x1="568" y1="0" x2="568" y2="720" stroke="#ffffff" stroke-opacity="0.025"/><line x1="616" y1="0" x2="616" y2="720" stroke="#ffffff" stroke-opacity="0.025"/><line x1="664" y1="0" x2="664" y2="720" stroke="#ffffff" stroke-opacity="0.025"/><line x1="712" y1="0" x2="712" y2="720" stroke="#ffffff" stroke-opacity="0.025"/><line x1="760" y1="0" x2="760" y2="720" stroke="#ffffff" stroke-opacity="0.025"/><line x1="808" y1="0" x2="808" y2="720" stroke="#ffffff" stroke-opacity="0.025"/><line x1="856" y1="0" x2="856" y2="720" stroke="#ffffff" stroke-opacity="0.025"/><line x1="904" y1="0" x2="904" y2="720" stroke="#ffffff" stroke-opacity="0.025"/><line x1="952" y1="0" x2="952" y2="720" stroke="#ffffff" stroke-opacity="0.025"/><line x1="1000" y1="0" x2="1000" y2="720" stroke="#ffffff" stroke-opacity="0.025"/><line x1="1048" y1="0" x2="1048" y2="720" stroke="#ffffff" stroke-opacity="0.025"/><line x1="1096" y1="0" x2="1096" y2="720" stroke="#ffffff" stroke-opacity="0.025"/><line x1="1144" y1="0" x2="1144" y2="720" stroke="#ffffff" stroke-opacity="0.025"/><line x1="1192" y1="0" x2="1192" y2="720" stroke="#ffffff" stroke-opacity="0.025"/><line x1="0" y1="40" x2="1200" y2="40" stroke="#ffffff" stroke-opacity="0.025"/><line x1="0" y1="88" x2="1200" y2="88" stroke="#ffffff" stroke-opacity="0.025"/><line x1="0" y1="136" x2="1200" y2="136" stroke="#ffffff" stroke-opacity="0.025"/><line x1="0" y1="184" x2="1200" y2="184" stroke="#ffffff" stroke-opacity="0.025"/><line x1="0" y1="232" x2="1200" y2="232" stroke="#ffffff" stroke-opacity="0.025"/><line x1="0" y1="280" x2="1200" y2="280" stroke="#ffffff" stroke-opacity="0.025"/><line x1="0" y1="328" x2="1200" y2="328" stroke="#ffffff" stroke-opacity="0.025"/><line x1="0" y1="376" x2="1200" y2="376" stroke="#ffffff" stroke-opacity="0.025"/><line x1="0" y1="424" x2="1200" y2="424" stroke="#ffffff" stroke-opacity="0.025"/><line x1="0" y1="472" x2="1200" y2="472" stroke="#ffffff" stroke-opacity="0.025"/><line x1="0" y1="520" x2="1200" y2="520" stroke="#ffffff" stroke-opacity="0.025"/><line x1="0" y1="568" x2="1200" y2="568" stroke="#ffffff" stroke-opacity="0.025"/><line x1="0" y1="616" x2="1200" y2="616" stroke="#ffffff" stroke-opacity="0.025"/><line x1="0" y1="664" x2="1200" y2="664" stroke="#ffffff" stroke-opacity="0.025"/><line x1="0" y1="712" x2="1200" y2="712" stroke="#ffffff" stroke-opacity="0.025"/>
<ellipse class="ap" cx="200" cy="40" rx="560" ry="330" fill="url(#glowA)"/>
<ellipse class="ap" cx="1080" cy="700" rx="520" ry="320" fill="url(#glowB)" style="animation-delay:1.6s"/>
<g opacity="0.97">
<circle cx="880" cy="285" r="200" fill="url(#glowA)"/>
<g class="asp"><circle cx="880" cy="285" r="150" fill="none" stroke="#22d3ee" stroke-opacity="0.4" stroke-width="2.5" stroke-dasharray="2 10"/></g>
<g class="asp" style="animation-direction:reverse;animation-duration:40s"><circle cx="880" cy="285" r="208" fill="none" stroke="#3b82f6" stroke-opacity="0.28" stroke-width="2.5" stroke-dasharray="2 10"/></g>
<g class="abe">
  <polygon points="880.0,199.0 954.5,242.0 954.5,328.0 880.0,371.0 805.5,328.0 805.5,242.0" fill="url(#acc)"/>
  <polygon points="880.0,219.0 937.2,252.0 937.2,318.0 880.0,351.0 822.8,318.0 822.8,252.0" fill="#0b0b10" opacity="0.55"/>
  <text x="880" y="283" text-anchor="middle" font-family="Inter, 'Segoe UI', -apple-system, system-ui, sans-serif" font-size="30" font-weight="900" fill="#ffffff">ECO</text>
  <text x="880" y="311" text-anchor="middle" font-family="Inter, 'Segoe UI', -apple-system, system-ui, sans-serif" font-size="13" font-weight="700" letter-spacing="2" fill="#ffffff" fill-opacity="0.7">ENGINE</text>
</g>
<g class="af">
  <circle cx="732" cy="223" r="36" fill="#f7931a"/>
  <circle cx="732" cy="223" r="32" fill="none" stroke="#0b0b10" stroke-opacity="0.35" stroke-width="2"/>
  <text x="732" y="235.96" text-anchor="middle" font-family="Inter, 'Segoe UI', -apple-system, system-ui, sans-serif" font-size="36" font-weight="800" fill="#0b0b10" fill-opacity="0.8">₿</text>
</g><g class="af" style="animation-delay:0.9s">
  <circle cx="1032" cy="237" r="36" fill="#627eea"/>
  <circle cx="1032" cy="237" r="32" fill="none" stroke="#0b0b10" stroke-opacity="0.35" stroke-width="2"/>
  <text x="1032" y="249.96" text-anchor="middle" font-family="Inter, 'Segoe UI', -apple-system, system-ui, sans-serif" font-size="36" font-weight="800" fill="#0b0b10" fill-opacity="0.8">Ξ</text>
</g><g class="af" style="animation-delay:1.8s">
  <circle cx="940" cy="90" r="36" fill="#26a17b"/>
  <circle cx="940" cy="90" r="32" fill="none" stroke="#0b0b10" stroke-opacity="0.35" stroke-width="2"/>
  <text x="940" y="102.96" text-anchor="middle" font-family="Inter, 'Segoe UI', -apple-system, system-ui, sans-serif" font-size="36" font-weight="800" fill="#0b0b10" fill-opacity="0.8">₮</text>
</g><g class="af" style="animation-delay:2.7s">
  <circle cx="685" cy="373" r="36" fill="#2dd4bf"/>
  <circle cx="685" cy="373" r="32" fill="none" stroke="#0b0b10" stroke-opacity="0.35" stroke-width="2"/>
  <text x="685" y="385.96" text-anchor="middle" font-family="Inter, 'Segoe UI', -apple-system, system-ui, sans-serif" font-size="36" font-weight="800" fill="#0b0b10" fill-opacity="0.8">◎</text>
</g><g class="af" style="animation-delay:3.6s">
  <circle cx="1076" cy="377" r="36" fill="#eb4d3d"/>
  <circle cx="1076" cy="377" r="32" fill="none" stroke="#0b0b10" stroke-opacity="0.35" stroke-width="2"/>
  <text x="1076" y="389.96" text-anchor="middle" font-family="Inter, 'Segoe UI', -apple-system, system-ui, sans-serif" font-size="36" font-weight="800" fill="#0b0b10" fill-opacity="0.8">T</text>
</g><g class="af" style="animation-delay:4.5s">
  <circle cx="828" cy="483" r="36" fill="#f26822"/>
  <circle cx="828" cy="483" r="32" fill="none" stroke="#0b0b10" stroke-opacity="0.35" stroke-width="2"/>
  <text x="828" y="495.96" text-anchor="middle" font-family="Inter, 'Segoe UI', -apple-system, system-ui, sans-serif" font-size="36" font-weight="800" fill="#0b0b10" fill-opacity="0.8">ɱ</text>
</g>
<g>
  <rect x="600" y="530" width="285" height="104" rx="18" fill="#14141d" fill-opacity="0.94" stroke="#ffffff" stroke-opacity="0.12"/>
  <text x="626" y="568" font-family="Inter, 'Segoe UI', -apple-system, system-ui, sans-serif" font-size="16" font-weight="600" fill="#ffffff" fill-opacity="0.6">Multi-chain wallets</text>
  <text x="626" y="604" font-family="Inter, 'Segoe UI', -apple-system, system-ui, sans-serif" font-size="26" font-weight="800" fill="#ffffff">$84,120.50</text>
  <text x="800" y="604" font-family="Inter, 'Segoe UI', -apple-system, system-ui, sans-serif" font-size="16" font-weight="700" fill="#34d399">+2.4%</text>
</g>
<g>
  <rect x="910" y="566" width="192.72" height="33.6" rx="16.8" fill="#3b82f6" fill-opacity="0.15" stroke="#3b82f6" stroke-opacity="0.4"/>
  <text x="1006.36" y="589.04" text-anchor="middle" font-family="Inter, 'Segoe UI', -apple-system, system-ui, sans-serif" font-size="16" font-weight="700" fill="#3b82f6">On-chain custody</text>
</g></g>
<g>
  <rect x="64" y="52" width="46" height="46" rx="13" fill="url(#acc)"/>
  <text x="87" y="84" text-anchor="middle" font-family="Inter, 'Segoe UI', -apple-system, system-ui, sans-serif" font-size="26" font-weight="900" fill="#fff">M</text>
  <text x="124" y="82" font-family="Inter, 'Segoe UI', -apple-system, system-ui, sans-serif" font-size="18" font-weight="800" letter-spacing="3.5" fill="#ffffff" fill-opacity="0.9">MASHDIV</text>
</g>
<g>
  <rect x="64" y="206" width="164.2" height="31.5" rx="15.75" fill="#22d3ee" fill-opacity="0.15" stroke="#22d3ee" stroke-opacity="0.4"/>
  <text x="146.1" y="227.6" text-anchor="middle" font-family="Inter, 'Segoe UI', -apple-system, system-ui, sans-serif" font-size="15" font-weight="700" fill="#22d3ee">FLAGSHIP ADDON</text>
</g>
<text x="64" y="300" font-family="Inter, 'Segoe UI', -apple-system, system-ui, sans-serif" font-size="76" font-weight="800" letter-spacing="-2" fill="#ffffff">Ecosystem</text>
<text x="64" y="356" font-family="Inter, 'Segoe UI', -apple-system, system-ui, sans-serif" font-size="27" fill="#ffffff" fill-opacity="0.72">Native trading engine with</text>
<text x="64" y="394" font-family="Inter, 'Segoe UI', -apple-system, system-ui, sans-serif" font-size="27" fill="#ffffff" fill-opacity="0.72">on-chain multi-wallet custody.</text>
<g>
  <circle class="ab" cx="72" cy="642" r="5" fill="#34d399"/>
  <text x="88" y="649" font-family="Inter, 'Segoe UI', -apple-system, system-ui, sans-serif" font-size="19" fill="#ffffff" fill-opacity="0.55">Instant delivery · Lifetime updates</text>
</g>
</svg>