<svg xmlns="http://www.w3.org/2000/svg" viewBox="0 0 1200 720" width="1200" height="720" role="img" aria-label="NFT Marketplace">
<style>
@keyframes fl{0%,100%{transform:translateY(0)}50%{transform:translateY(-7px)}}
@keyframes pu{0%,100%{opacity:1}50%{opacity:.55}}
@keyframes bl{0%,100%{opacity:1}50%{opacity:.35}}
@keyframes ma{to{stroke-dashoffset:-120}}
@keyframes dr{0%{stroke-dashoffset:1000}100%{stroke-dashoffset:0}}
@keyframes be{0%,100%{transform:scale(1)}50%{transform:scale(1.05)}}
@keyframes eq{0%,100%{transform:scaleY(1)}50%{transform:scaleY(.62)}}
@keyframes sp{to{transform:rotate(360deg)}}
@keyframes px{0%,100%{transform:scaleX(.78)}50%{transform:scaleX(1)}}
@keyframes fk{0%,100%{transform:scaleY(1);opacity:.85}50%{transform:scaleY(1.22);opacity:1}}
.af{animation:fl 9s ease-in-out infinite}
.ap{animation:pu 6s ease-in-out infinite}
.ab{animation:bl 4s ease-in-out infinite}
.am{animation:ma 4.8s linear infinite}
.ad{stroke-dasharray:1000;stroke-dashoffset:1000;animation:dr 10s ease-in-out infinite alternate}
.abe{transform-box:fill-box;transform-origin:center;animation:be 6s ease-in-out infinite}
.aq{transform-box:fill-box;transform-origin:center bottom;animation:eq 4s ease-in-out infinite}
.asp{transform-box:fill-box;transform-origin:center;animation:sp 30s linear infinite}
.apx{transform-box:fill-box;transform-origin:left center;animation:px 8s ease-in-out infinite}
.afk{transform-box:fill-box;transform-origin:center top;animation:fk 1.6s ease-in-out infinite}
@media (prefers-reduced-motion:reduce){.af,.ap,.ab,.am,.ad,.abe,.aq,.asp,.apx,.afk{animation:none}.ad{stroke-dashoffset:0}}
</style>
<defs>
  <linearGradient id="bg" x1="0" y1="0" x2="1" y2="1">
    <stop offset="0" stop-color="#101018"/>
    <stop offset="1" stop-color="#0a0a10"/>
  </linearGradient>
  <linearGradient id="acc" x1="0" y1="0" x2="1" y2="1">
    <stop offset="0" stop-color="#e879f9"/>
    <stop offset="1" stop-color="#a855f7"/>
  </linearGradient>
  <linearGradient id="accSoft" x1="0" y1="0" x2="0" y2="1">
    <stop offset="0" stop-color="#e879f9" stop-opacity="0.35"/>
    <stop offset="1" stop-color="#e879f9" stop-opacity="0"/>
  </linearGradient>
  <radialGradient id="glowA" cx="0.5" cy="0.5" r="0.5">
    <stop offset="0" stop-color="#e879f9" stop-opacity="0.35"/>
    <stop offset="1" stop-color="#e879f9" stop-opacity="0"/>
  </radialGradient>
  <radialGradient id="glowB" cx="0.5" cy="0.5" r="0.5">
    <stop offset="0" stop-color="#a855f7" stop-opacity="0.28"/>
    <stop offset="1" stop-color="#a855f7" stop-opacity="0"/>
  </radialGradient>
</defs>
<rect width="1200" height="720" fill="url(#bg)"/>
<line x1="40" y1="0" x2="40" y2="720" stroke="#ffffff" stroke-opacity="0.025"/><line x1="88" y1="0" x2="88" y2="720" stroke="#ffffff" stroke-opacity="0.025"/><line x1="136" y1="0" x2="136" y2="720" stroke="#ffffff" stroke-opacity="0.025"/><line x1="184" y1="0" x2="184" y2="720" stroke="#ffffff" stroke-opacity="0.025"/><line x1="232" y1="0" x2="232" y2="720" stroke="#ffffff" stroke-opacity="0.025"/><line x1="280" y1="0" x2="280" y2="720" stroke="#ffffff" stroke-opacity="0.025"/><line x1="328" y1="0" x2="328" y2="720" stroke="#ffffff" stroke-opacity="0.025"/><line x1="376" y1="0" x2="376" y2="720" stroke="#ffffff" stroke-opacity="0.025"/><line x1="424" y1="0" x2="424" y2="720" stroke="#ffffff" stroke-opacity="0.025"/><line x1="472" y1="0" x2="472" y2="720" stroke="#ffffff" stroke-opacity="0.025"/><line x1="520" y1="0" x2="520" y2="720" stroke="#ffffff" stroke-opacity="0.025"/><line x1="568" y1="0" x2="568" y2="720" stroke="#ffffff" stroke-opacity="0.025"/><line x1="616" y1="0" x2="616" y2="720" stroke="#ffffff" stroke-opacity="0.025"/><line x1="664" y1="0" x2="664" y2="720" stroke="#ffffff" stroke-opacity="0.025"/><line x1="712" y1="0" x2="712" y2="720" stroke="#ffffff" stroke-opacity="0.025"/><line x1="760" y1="0" x2="760" y2="720" stroke="#ffffff" stroke-opacity="0.025"/><line x1="808" y1="0" x2="808" y2="720" stroke="#ffffff" stroke-opacity="0.025"/><line x1="856" y1="0" x2="856" y2="720" stroke="#ffffff" stroke-opacity="0.025"/><line x1="904" y1="0" x2="904" y2="720" stroke="#ffffff" stroke-opacity="0.025"/><line x1="952" y1="0" x2="952" y2="720" stroke="#ffffff" stroke-opacity="0.025"/><line x1="1000" y1="0" x2="1000" y2="720" stroke="#ffffff" stroke-opacity="0.025"/><line x1="1048" y1="0" x2="1048" y2="720" stroke="#ffffff" stroke-opacity="0.025"/><line x1="1096" y1="0" x2="1096" y2="720" stroke="#ffffff" stroke-opacity="0.025"/><line x1="1144" y1="0" x2="1144" y2="720" stroke="#ffffff" stroke-opacity="0.025"/><line x1="1192" y1="0" x2="1192" y2="720" stroke="#ffffff" stroke-opacity="0.025"/><line x1="0" y1="40" x2="1200" y2="40" stroke="#ffffff" stroke-opacity="0.025"/><line x1="0" y1="88" x2="1200" y2="88" stroke="#ffffff" stroke-opacity="0.025"/><line x1="0" y1="136" x2="1200" y2="136" stroke="#ffffff" stroke-opacity="0.025"/><line x1="0" y1="184" x2="1200" y2="184" stroke="#ffffff" stroke-opacity="0.025"/><line x1="0" y1="232" x2="1200" y2="232" stroke="#ffffff" stroke-opacity="0.025"/><line x1="0" y1="280" x2="1200" y2="280" stroke="#ffffff" stroke-opacity="0.025"/><line x1="0" y1="328" x2="1200" y2="328" stroke="#ffffff" stroke-opacity="0.025"/><line x1="0" y1="376" x2="1200" y2="376" stroke="#ffffff" stroke-opacity="0.025"/><line x1="0" y1="424" x2="1200" y2="424" stroke="#ffffff" stroke-opacity="0.025"/><line x1="0" y1="472" x2="1200" y2="472" stroke="#ffffff" stroke-opacity="0.025"/><line x1="0" y1="520" x2="1200" y2="520" stroke="#ffffff" stroke-opacity="0.025"/><line x1="0" y1="568" x2="1200" y2="568" stroke="#ffffff" stroke-opacity="0.025"/><line x1="0" y1="616" x2="1200" y2="616" stroke="#ffffff" stroke-opacity="0.025"/><line x1="0" y1="664" x2="1200" y2="664" stroke="#ffffff" stroke-opacity="0.025"/><line x1="0" y1="712" x2="1200" y2="712" stroke="#ffffff" stroke-opacity="0.025"/>
<ellipse class="ap" cx="200" cy="40" rx="560" ry="330" fill="url(#glowA)"/>
<ellipse class="ap" cx="1080" cy="700" rx="520" ry="320" fill="url(#glowB)" style="animation-delay:1.6s"/>
<g opacity="0.97">
<g class="af">
  <rect x="700" y="115" width="340" height="415" rx="26" fill="#14141d" stroke="#ffffff" stroke-opacity="0.14"/>
  <rect x="724" y="139" width="292" height="260" rx="18" fill="url(#acc)"/>
  <g transform="translate(870 265)">
    <polygon points="0,-75 65,-23 40,60 -40,60 -65,-23" fill="#0b0b10" opacity="0.35"/>
    <polygon points="0,-62 54,-19 33,50 -33,50 -54,-19" fill="#ffffff" fill-opacity="0.92"/>
    <polygon class="ap" points="0,-62 54,-19 0,11 -54,-19" fill="#ffffff"/>
  </g>
  <rect x="724" y="428" width="170" height="11" rx="5.5" fill="#ffffff" fill-opacity="0.42"/><rect x="724" y="454" width="116" height="11" rx="5.5" fill="#ffffff" fill-opacity="0.22"/>
  <g class="abe">
    <rect x="878" y="448" width="138" height="44" rx="22" fill="url(#acc)"/>
    <text x="947" y="476" text-anchor="middle" font-family="Inter, 'Segoe UI', -apple-system, system-ui, sans-serif" font-size="17" font-weight="800" fill="#0b0b10">Bid 2.4 ETH</text>
  </g>
</g>
<g>
  <rect x="650" y="570" width="143.12" height="33.6" rx="16.8" fill="#e879f9" fill-opacity="0.15" stroke="#e879f9" stroke-opacity="0.4"/>
  <text x="721.56" y="593.04" text-anchor="middle" font-family="Inter, 'Segoe UI', -apple-system, system-ui, sans-serif" font-size="16" font-weight="700" fill="#e879f9">Multi-chain</text>
</g>
<g>
  <rect x="810" y="570" width="153.04" height="33.6" rx="16.8" fill="#a855f7" fill-opacity="0.15" stroke="#a855f7" stroke-opacity="0.4"/>
  <text x="886.52" y="593.04" text-anchor="middle" font-family="Inter, 'Segoe UI', -apple-system, system-ui, sans-serif" font-size="16" font-weight="700" fill="#a855f7">Lazy minting</text>
</g>
<g>
  <rect x="985" y="570" width="123.28" height="33.6" rx="16.8" fill="#34d399" fill-opacity="0.15" stroke="#34d399" stroke-opacity="0.4"/>
  <text x="1046.64" y="593.04" text-anchor="middle" font-family="Inter, 'Segoe UI', -apple-system, system-ui, sans-serif" font-size="16" font-weight="700" fill="#34d399">Royalties</text>
</g></g>
<g>
  <rect x="64" y="52" width="46" height="46" rx="13" fill="url(#acc)"/>
  <text x="87" y="84" text-anchor="middle" font-family="Inter, 'Segoe UI', -apple-system, system-ui, sans-serif" font-size="26" font-weight="900" fill="#fff">M</text>
  <text x="124" y="82" font-family="Inter, 'Segoe UI', -apple-system, system-ui, sans-serif" font-size="18" font-weight="800" letter-spacing="3.5" fill="#ffffff" fill-opacity="0.9">MASHDIV</text>
</g>
<g>
  <rect x="64" y="206" width="80.5" height="31.5" rx="15.75" fill="#e879f9" fill-opacity="0.15" stroke="#e879f9" stroke-opacity="0.4"/>
  <text x="104.25" y="227.6" text-anchor="middle" font-family="Inter, 'Segoe UI', -apple-system, system-ui, sans-serif" font-size="15" font-weight="700" fill="#e879f9">ADDON</text>
</g>
<text x="64" y="300" font-family="Inter, 'Segoe UI', -apple-system, system-ui, sans-serif" font-size="64" font-weight="800" letter-spacing="-2" fill="#ffffff">NFT</text>
<text x="64" y="374" font-family="Inter, 'Segoe UI', -apple-system, system-ui, sans-serif" font-size="64" font-weight="800" letter-spacing="-2" fill="#ffffff">Marketplace</text>
<text x="64" y="430" font-family="Inter, 'Segoe UI', -apple-system, system-ui, sans-serif" font-size="27" fill="#ffffff" fill-opacity="0.72">Multi-chain NFT trading</text>
<text x="64" y="468" font-family="Inter, 'Segoe UI', -apple-system, system-ui, sans-serif" font-size="27" fill="#ffffff" fill-opacity="0.72">with creator royalties.</text>
<g>
  <circle class="ab" cx="72" cy="642" r="5" fill="#34d399"/>
  <text x="88" y="649" font-family="Inter, 'Segoe UI', -apple-system, system-ui, sans-serif" font-size="19" fill="#ffffff" fill-opacity="0.55">Instant delivery · Lifetime updates</text>
</g>
</svg>