<svg xmlns="http://www.w3.org/2000/svg" viewBox="0 0 1200 720" width="1200" height="720" role="img" aria-label="Payment Gateway">
<style>
@keyframes fl{0%,100%{transform:translateY(0)}50%{transform:translateY(-7px)}}
@keyframes pu{0%,100%{opacity:1}50%{opacity:.55}}
@keyframes bl{0%,100%{opacity:1}50%{opacity:.35}}
@keyframes ma{to{stroke-dashoffset:-120}}
@keyframes dr{0%{stroke-dashoffset:1000}100%{stroke-dashoffset:0}}
@keyframes be{0%,100%{transform:scale(1)}50%{transform:scale(1.05)}}
@keyframes eq{0%,100%{transform:scaleY(1)}50%{transform:scaleY(.62)}}
@keyframes sp{to{transform:rotate(360deg)}}
@keyframes px{0%,100%{transform:scaleX(.78)}50%{transform:scaleX(1)}}
@keyframes fk{0%,100%{transform:scaleY(1);opacity:.85}50%{transform:scaleY(1.22);opacity:1}}
.af{animation:fl 9s ease-in-out infinite}
.ap{animation:pu 6s ease-in-out infinite}
.ab{animation:bl 4s ease-in-out infinite}
.am{animation:ma 4.8s linear infinite}
.ad{stroke-dasharray:1000;stroke-dashoffset:1000;animation:dr 10s ease-in-out infinite alternate}
.abe{transform-box:fill-box;transform-origin:center;animation:be 6s ease-in-out infinite}
.aq{transform-box:fill-box;transform-origin:center bottom;animation:eq 4s ease-in-out infinite}
.asp{transform-box:fill-box;transform-origin:center;animation:sp 30s linear infinite}
.apx{transform-box:fill-box;transform-origin:left center;animation:px 8s ease-in-out infinite}
.afk{transform-box:fill-box;transform-origin:center top;animation:fk 1.6s ease-in-out infinite}
@media (prefers-reduced-motion:reduce){.af,.ap,.ab,.am,.ad,.abe,.aq,.asp,.apx,.afk{animation:none}.ad{stroke-dashoffset:0}}
</style>
<defs>
  <linearGradient id="bg" x1="0" y1="0" x2="1" y2="1">
    <stop offset="0" stop-color="#f6f8fb"/>
    <stop offset="1" stop-color="#eceff4"/>
  </linearGradient>
  <linearGradient id="acc" x1="0" y1="0" x2="1" y2="1">
    <stop offset="0" stop-color="#60a5fa"/>
    <stop offset="1" stop-color="#6366f1"/>
  </linearGradient>
  <linearGradient id="accSoft" x1="0" y1="0" x2="0" y2="1">
    <stop offset="0" stop-color="#60a5fa" stop-opacity="0.35"/>
    <stop offset="1" stop-color="#60a5fa" stop-opacity="0"/>
  </linearGradient>
  <radialGradient id="glowA" cx="0.5" cy="0.5" r="0.5">
    <stop offset="0" stop-color="#60a5fa" stop-opacity="0.35"/>
    <stop offset="1" stop-color="#60a5fa" stop-opacity="0"/>
  </radialGradient>
  <radialGradient id="glowB" cx="0.5" cy="0.5" r="0.5">
    <stop offset="0" stop-color="#6366f1" stop-opacity="0.28"/>
    <stop offset="1" stop-color="#6366f1" stop-opacity="0"/>
  </radialGradient>
</defs>
<rect width="1200" height="720" fill="url(#bg)"/>
<line x1="40" y1="0" x2="40" y2="720" stroke="#0f172a" stroke-opacity="0.025"/><line x1="88" y1="0" x2="88" y2="720" stroke="#0f172a" stroke-opacity="0.025"/><line x1="136" y1="0" x2="136" y2="720" stroke="#0f172a" stroke-opacity="0.025"/><line x1="184" y1="0" x2="184" y2="720" stroke="#0f172a" stroke-opacity="0.025"/><line x1="232" y1="0" x2="232" y2="720" stroke="#0f172a" stroke-opacity="0.025"/><line x1="280" y1="0" x2="280" y2="720" stroke="#0f172a" stroke-opacity="0.025"/><line x1="328" y1="0" x2="328" y2="720" stroke="#0f172a" stroke-opacity="0.025"/><line x1="376" y1="0" x2="376" y2="720" stroke="#0f172a" stroke-opacity="0.025"/><line x1="424" y1="0" x2="424" y2="720" stroke="#0f172a" stroke-opacity="0.025"/><line x1="472" y1="0" x2="472" y2="720" stroke="#0f172a" stroke-opacity="0.025"/><line x1="520" y1="0" x2="520" y2="720" stroke="#0f172a" stroke-opacity="0.025"/><line x1="568" y1="0" x2="568" y2="720" stroke="#0f172a" stroke-opacity="0.025"/><line x1="616" y1="0" x2="616" y2="720" stroke="#0f172a" stroke-opacity="0.025"/><line x1="664" y1="0" x2="664" y2="720" stroke="#0f172a" stroke-opacity="0.025"/><line x1="712" y1="0" x2="712" y2="720" stroke="#0f172a" stroke-opacity="0.025"/><line x1="760" y1="0" x2="760" y2="720" stroke="#0f172a" stroke-opacity="0.025"/><line x1="808" y1="0" x2="808" y2="720" stroke="#0f172a" stroke-opacity="0.025"/><line x1="856" y1="0" x2="856" y2="720" stroke="#0f172a" stroke-opacity="0.025"/><line x1="904" y1="0" x2="904" y2="720" stroke="#0f172a" stroke-opacity="0.025"/><line x1="952" y1="0" x2="952" y2="720" stroke="#0f172a" stroke-opacity="0.025"/><line x1="1000" y1="0" x2="1000" y2="720" stroke="#0f172a" stroke-opacity="0.025"/><line x1="1048" y1="0" x2="1048" y2="720" stroke="#0f172a" stroke-opacity="0.025"/><line x1="1096" y1="0" x2="1096" y2="720" stroke="#0f172a" stroke-opacity="0.025"/><line x1="1144" y1="0" x2="1144" y2="720" stroke="#0f172a" stroke-opacity="0.025"/><line x1="1192" y1="0" x2="1192" y2="720" stroke="#0f172a" stroke-opacity="0.025"/><line x1="0" y1="40" x2="1200" y2="40" stroke="#0f172a" stroke-opacity="0.025"/><line x1="0" y1="88" x2="1200" y2="88" stroke="#0f172a" stroke-opacity="0.025"/><line x1="0" y1="136" x2="1200" y2="136" stroke="#0f172a" stroke-opacity="0.025"/><line x1="0" y1="184" x2="1200" y2="184" stroke="#0f172a" stroke-opacity="0.025"/><line x1="0" y1="232" x2="1200" y2="232" stroke="#0f172a" stroke-opacity="0.025"/><line x1="0" y1="280" x2="1200" y2="280" stroke="#0f172a" stroke-opacity="0.025"/><line x1="0" y1="328" x2="1200" y2="328" stroke="#0f172a" stroke-opacity="0.025"/><line x1="0" y1="376" x2="1200" y2="376" stroke="#0f172a" stroke-opacity="0.025"/><line x1="0" y1="424" x2="1200" y2="424" stroke="#0f172a" stroke-opacity="0.025"/><line x1="0" y1="472" x2="1200" y2="472" stroke="#0f172a" stroke-opacity="0.025"/><line x1="0" y1="520" x2="1200" y2="520" stroke="#0f172a" stroke-opacity="0.025"/><line x1="0" y1="568" x2="1200" y2="568" stroke="#0f172a" stroke-opacity="0.025"/><line x1="0" y1="616" x2="1200" y2="616" stroke="#0f172a" stroke-opacity="0.025"/><line x1="0" y1="664" x2="1200" y2="664" stroke="#0f172a" stroke-opacity="0.025"/><line x1="0" y1="712" x2="1200" y2="712" stroke="#0f172a" stroke-opacity="0.025"/>
<ellipse class="ap" cx="200" cy="40" rx="560" ry="330" fill="url(#glowA)"/>
<ellipse class="ap" cx="1080" cy="700" rx="520" ry="320" fill="url(#glowB)" style="animation-delay:1.6s"/>
<g opacity="0.97">
<g class="af">
  <rect x="610" y="140" width="340" height="210" rx="24" fill="url(#acc)"/>
  <rect x="610" y="198" width="340" height="44" fill="#0b0b10" opacity="0.55"/>
  <rect x="640" y="290" width="74" height="28" rx="9" fill="#0f172a" fill-opacity="0.85"/>
  <text x="640" y="182" font-family="Inter, 'Segoe UI', -apple-system, system-ui, sans-serif" font-size="19" font-weight="700" fill="#0b0b10" fill-opacity="0.75">MashDiv Pay</text>
</g>
<line class="am" x1="958" y1="245" x2="1015" y2="245" stroke="#60a5fa" stroke-width="4.5" stroke-dasharray="2 10" stroke-linecap="round"/>
<g class="af">
  <circle cx="1080" cy="195" r="36" fill="#f7931a"/>
  <circle cx="1080" cy="195" r="32" fill="none" stroke="#0b0b10" stroke-opacity="0.35" stroke-width="2"/>
  <text x="1080" y="207.96" text-anchor="middle" font-family="Inter, 'Segoe UI', -apple-system, system-ui, sans-serif" font-size="36" font-weight="800" fill="#0b0b10" fill-opacity="0.8">₿</text>
</g>
<g class="af" style="animation-delay:0.9s">
  <circle cx="1080" cy="285" r="36" fill="#26a17b"/>
  <circle cx="1080" cy="285" r="32" fill="none" stroke="#0b0b10" stroke-opacity="0.35" stroke-width="2"/>
  <text x="1080" y="297.96" text-anchor="middle" font-family="Inter, 'Segoe UI', -apple-system, system-ui, sans-serif" font-size="36" font-weight="800" fill="#0b0b10" fill-opacity="0.8">₮</text>
</g>
<g>
  <rect x="706" y="410" width="430" height="165" rx="18" fill="#334155" opacity="0.14"/>
  <rect x="700" y="400" width="430" height="165" rx="18" fill="#ffffff" fill-opacity="0.94" stroke="#0f172a" stroke-opacity="0.12"/>
  <rect x="700" y="400" width="430" height="46" rx="18" fill="#0f172a" fill-opacity="0.03"/>
  <line x1="700" y1="446" x2="1130" y2="446" stroke="#0f172a" stroke-opacity="0.08"/>
  <circle cx="724" cy="423" r="5.5" fill="#fb7185" opacity="0.9"/>
  <circle cx="743" cy="423" r="5.5" fill="#fbbf24" opacity="0.9"/>
  <circle cx="762" cy="423" r="5.5" fill="#34d399" opacity="0.9"/>
  
</g>
<text x="728" y="478" font-family="Inter, 'Segoe UI', -apple-system, system-ui, sans-serif" font-size="18" fill="#0f172a" fill-opacity="0.75">Order #2481 · $349.00</text>
<g class="abe">
  <rect x="728" y="498" width="150" height="42" rx="21" fill="#34d399"/>
  <text x="803" y="525" text-anchor="middle" font-family="Inter, 'Segoe UI', -apple-system, system-ui, sans-serif" font-size="17" font-weight="800" fill="#0b0b10">Paid ✓</text>
</g>
<g>
  <rect x="905" y="500" width="136.3" height="31.5" rx="15.75" fill="#6366f1" fill-opacity="0.15" stroke="#6366f1" stroke-opacity="0.4"/>
  <text x="973.15" y="521.6" text-anchor="middle" font-family="Inter, 'Segoe UI', -apple-system, system-ui, sans-serif" font-size="15" font-weight="700" fill="#6366f1">WooCommerce</text>
</g></g>
<g>
  <rect x="64" y="52" width="46" height="46" rx="13" fill="url(#acc)"/>
  <text x="87" y="84" text-anchor="middle" font-family="Inter, 'Segoe UI', -apple-system, system-ui, sans-serif" font-size="26" font-weight="900" fill="#fff">M</text>
  <text x="124" y="82" font-family="Inter, 'Segoe UI', -apple-system, system-ui, sans-serif" font-size="18" font-weight="800" letter-spacing="3.5" fill="#0f172a" fill-opacity="0.9">MASHDIV</text>
</g>
<g>
  <rect x="64" y="206" width="80.5" height="31.5" rx="15.75" fill="#60a5fa" fill-opacity="0.15" stroke="#60a5fa" stroke-opacity="0.4"/>
  <text x="104.25" y="227.6" text-anchor="middle" font-family="Inter, 'Segoe UI', -apple-system, system-ui, sans-serif" font-size="15" font-weight="700" fill="#60a5fa">ADDON</text>
</g>
<text x="64" y="300" font-family="Inter, 'Segoe UI', -apple-system, system-ui, sans-serif" font-size="76" font-weight="800" letter-spacing="-2" fill="#0f172a">Payment</text>
<text x="64" y="386" font-family="Inter, 'Segoe UI', -apple-system, system-ui, sans-serif" font-size="76" font-weight="800" letter-spacing="-2" fill="#0f172a">Gateway</text>
<text x="64" y="442" font-family="Inter, 'Segoe UI', -apple-system, system-ui, sans-serif" font-size="27" fill="#0f172a" fill-opacity="0.72">Accept wallet payments anywhere</text>
<text x="64" y="480" font-family="Inter, 'Segoe UI', -apple-system, system-ui, sans-serif" font-size="27" fill="#0f172a" fill-opacity="0.72">— WooCommerce included.</text>
<g>
  <circle class="ab" cx="72" cy="642" r="5" fill="#34d399"/>
  <text x="88" y="649" font-family="Inter, 'Segoe UI', -apple-system, system-ui, sans-serif" font-size="19" fill="#0f172a" fill-opacity="0.55">Instant delivery · Lifetime updates</text>
</g>
</svg>