<svg xmlns="http://www.w3.org/2000/svg" viewBox="0 0 1200 720" width="1200" height="720" role="img" aria-label="Staking">
<style>
@keyframes fl{0%,100%{transform:translateY(0)}50%{transform:translateY(-7px)}}
@keyframes pu{0%,100%{opacity:1}50%{opacity:.55}}
@keyframes bl{0%,100%{opacity:1}50%{opacity:.35}}
@keyframes ma{to{stroke-dashoffset:-120}}
@keyframes dr{0%{stroke-dashoffset:1000}100%{stroke-dashoffset:0}}
@keyframes be{0%,100%{transform:scale(1)}50%{transform:scale(1.05)}}
@keyframes eq{0%,100%{transform:scaleY(1)}50%{transform:scaleY(.62)}}
@keyframes sp{to{transform:rotate(360deg)}}
@keyframes px{0%,100%{transform:scaleX(.78)}50%{transform:scaleX(1)}}
@keyframes fk{0%,100%{transform:scaleY(1);opacity:.85}50%{transform:scaleY(1.22);opacity:1}}
.af{animation:fl 9s ease-in-out infinite}
.ap{animation:pu 6s ease-in-out infinite}
.ab{animation:bl 4s ease-in-out infinite}
.am{animation:ma 4.8s linear infinite}
.ad{stroke-dasharray:1000;stroke-dashoffset:1000;animation:dr 10s ease-in-out infinite alternate}
.abe{transform-box:fill-box;transform-origin:center;animation:be 6s ease-in-out infinite}
.aq{transform-box:fill-box;transform-origin:center bottom;animation:eq 4s ease-in-out infinite}
.asp{transform-box:fill-box;transform-origin:center;animation:sp 30s linear infinite}
.apx{transform-box:fill-box;transform-origin:left center;animation:px 8s ease-in-out infinite}
.afk{transform-box:fill-box;transform-origin:center top;animation:fk 1.6s ease-in-out infinite}
@media (prefers-reduced-motion:reduce){.af,.ap,.ab,.am,.ad,.abe,.aq,.asp,.apx,.afk{animation:none}.ad{stroke-dashoffset:0}}
</style>
<defs>
  <linearGradient id="bg" x1="0" y1="0" x2="1" y2="1">
    <stop offset="0" stop-color="#101018"/>
    <stop offset="1" stop-color="#0a0a10"/>
  </linearGradient>
  <linearGradient id="acc" x1="0" y1="0" x2="1" y2="1">
    <stop offset="0" stop-color="#2dd4bf"/>
    <stop offset="1" stop-color="#10b981"/>
  </linearGradient>
  <linearGradient id="accSoft" x1="0" y1="0" x2="0" y2="1">
    <stop offset="0" stop-color="#2dd4bf" stop-opacity="0.35"/>
    <stop offset="1" stop-color="#2dd4bf" stop-opacity="0"/>
  </linearGradient>
  <radialGradient id="glowA" cx="0.5" cy="0.5" r="0.5">
    <stop offset="0" stop-color="#2dd4bf" stop-opacity="0.35"/>
    <stop offset="1" stop-color="#2dd4bf" stop-opacity="0"/>
  </radialGradient>
  <radialGradient id="glowB" cx="0.5" cy="0.5" r="0.5">
    <stop offset="0" stop-color="#10b981" stop-opacity="0.28"/>
    <stop offset="1" stop-color="#10b981" stop-opacity="0"/>
  </radialGradient>
</defs>
<rect width="1200" height="720" fill="url(#bg)"/>
<line x1="40" y1="0" x2="40" y2="720" stroke="#ffffff" stroke-opacity="0.025"/><line x1="88" y1="0" x2="88" y2="720" stroke="#ffffff" stroke-opacity="0.025"/><line x1="136" y1="0" x2="136" y2="720" stroke="#ffffff" stroke-opacity="0.025"/><line x1="184" y1="0" x2="184" y2="720" stroke="#ffffff" stroke-opacity="0.025"/><line x1="232" y1="0" x2="232" y2="720" stroke="#ffffff" stroke-opacity="0.025"/><line x1="280" y1="0" x2="280" y2="720" stroke="#ffffff" stroke-opacity="0.025"/><line x1="328" y1="0" x2="328" y2="720" stroke="#ffffff" stroke-opacity="0.025"/><line x1="376" y1="0" x2="376" y2="720" stroke="#ffffff" stroke-opacity="0.025"/><line x1="424" y1="0" x2="424" y2="720" stroke="#ffffff" stroke-opacity="0.025"/><line x1="472" y1="0" x2="472" y2="720" stroke="#ffffff" stroke-opacity="0.025"/><line x1="520" y1="0" x2="520" y2="720" stroke="#ffffff" stroke-opacity="0.025"/><line x1="568" y1="0" x2="568" y2="720" stroke="#ffffff" stroke-opacity="0.025"/><line x1="616" y1="0" x2="616" y2="720" stroke="#ffffff" stroke-opacity="0.025"/><line x1="664" y1="0" x2="664" y2="720" stroke="#ffffff" stroke-opacity="0.025"/><line x1="712" y1="0" x2="712" y2="720" stroke="#ffffff" stroke-opacity="0.025"/><line x1="760" y1="0" x2="760" y2="720" stroke="#ffffff" stroke-opacity="0.025"/><line x1="808" y1="0" x2="808" y2="720" stroke="#ffffff" stroke-opacity="0.025"/><line x1="856" y1="0" x2="856" y2="720" stroke="#ffffff" stroke-opacity="0.025"/><line x1="904" y1="0" x2="904" y2="720" stroke="#ffffff" stroke-opacity="0.025"/><line x1="952" y1="0" x2="952" y2="720" stroke="#ffffff" stroke-opacity="0.025"/><line x1="1000" y1="0" x2="1000" y2="720" stroke="#ffffff" stroke-opacity="0.025"/><line x1="1048" y1="0" x2="1048" y2="720" stroke="#ffffff" stroke-opacity="0.025"/><line x1="1096" y1="0" x2="1096" y2="720" stroke="#ffffff" stroke-opacity="0.025"/><line x1="1144" y1="0" x2="1144" y2="720" stroke="#ffffff" stroke-opacity="0.025"/><line x1="1192" y1="0" x2="1192" y2="720" stroke="#ffffff" stroke-opacity="0.025"/><line x1="0" y1="40" x2="1200" y2="40" stroke="#ffffff" stroke-opacity="0.025"/><line x1="0" y1="88" x2="1200" y2="88" stroke="#ffffff" stroke-opacity="0.025"/><line x1="0" y1="136" x2="1200" y2="136" stroke="#ffffff" stroke-opacity="0.025"/><line x1="0" y1="184" x2="1200" y2="184" stroke="#ffffff" stroke-opacity="0.025"/><line x1="0" y1="232" x2="1200" y2="232" stroke="#ffffff" stroke-opacity="0.025"/><line x1="0" y1="280" x2="1200" y2="280" stroke="#ffffff" stroke-opacity="0.025"/><line x1="0" y1="328" x2="1200" y2="328" stroke="#ffffff" stroke-opacity="0.025"/><line x1="0" y1="376" x2="1200" y2="376" stroke="#ffffff" stroke-opacity="0.025"/><line x1="0" y1="424" x2="1200" y2="424" stroke="#ffffff" stroke-opacity="0.025"/><line x1="0" y1="472" x2="1200" y2="472" stroke="#ffffff" stroke-opacity="0.025"/><line x1="0" y1="520" x2="1200" y2="520" stroke="#ffffff" stroke-opacity="0.025"/><line x1="0" y1="568" x2="1200" y2="568" stroke="#ffffff" stroke-opacity="0.025"/><line x1="0" y1="616" x2="1200" y2="616" stroke="#ffffff" stroke-opacity="0.025"/><line x1="0" y1="664" x2="1200" y2="664" stroke="#ffffff" stroke-opacity="0.025"/><line x1="0" y1="712" x2="1200" y2="712" stroke="#ffffff" stroke-opacity="0.025"/>
<ellipse class="ap" cx="200" cy="40" rx="560" ry="330" fill="url(#glowA)"/>
<ellipse class="ap" cx="1080" cy="700" rx="520" ry="320" fill="url(#glowB)" style="animation-delay:1.6s"/>
<g opacity="0.97"><g class="af" style="animation-delay:0s"><ellipse cx="700" cy="530" rx="50" ry="18" fill="#10b981" stroke="#0b0b10" stroke-opacity="0.35"/><ellipse cx="700" cy="502" rx="50" ry="18" fill="#2dd4bf" stroke="#0b0b10" stroke-opacity="0.35"/><ellipse cx="700" cy="474" rx="50" ry="18" fill="#10b981" stroke="#0b0b10" stroke-opacity="0.35"/><ellipse cx="700" cy="446" rx="50" ry="18" fill="#2dd4bf" stroke="#0b0b10" stroke-opacity="0.35"/></g><g class="af" style="animation-delay:0.7s"><ellipse cx="805" cy="530" rx="50" ry="18" fill="#10b981" stroke="#0b0b10" stroke-opacity="0.35"/><ellipse cx="805" cy="502" rx="50" ry="18" fill="#2dd4bf" stroke="#0b0b10" stroke-opacity="0.35"/><ellipse cx="805" cy="474" rx="50" ry="18" fill="#10b981" stroke="#0b0b10" stroke-opacity="0.35"/><ellipse cx="805" cy="446" rx="50" ry="18" fill="#2dd4bf" stroke="#0b0b10" stroke-opacity="0.35"/><ellipse cx="805" cy="418" rx="50" ry="18" fill="#10b981" stroke="#0b0b10" stroke-opacity="0.35"/><ellipse cx="805" cy="390" rx="50" ry="18" fill="#2dd4bf" stroke="#0b0b10" stroke-opacity="0.35"/></g><g class="af" style="animation-delay:1.4s"><ellipse cx="910" cy="530" rx="50" ry="18" fill="#10b981" stroke="#0b0b10" stroke-opacity="0.35"/><ellipse cx="910" cy="502" rx="50" ry="18" fill="#2dd4bf" stroke="#0b0b10" stroke-opacity="0.35"/><ellipse cx="910" cy="474" rx="50" ry="18" fill="#10b981" stroke="#0b0b10" stroke-opacity="0.35"/><ellipse cx="910" cy="446" rx="50" ry="18" fill="#2dd4bf" stroke="#0b0b10" stroke-opacity="0.35"/><ellipse cx="910" cy="418" rx="50" ry="18" fill="#10b981" stroke="#0b0b10" stroke-opacity="0.35"/><ellipse cx="910" cy="390" rx="50" ry="18" fill="#2dd4bf" stroke="#0b0b10" stroke-opacity="0.35"/><ellipse cx="910" cy="362" rx="50" ry="18" fill="#10b981" stroke="#0b0b10" stroke-opacity="0.35"/><ellipse cx="910" cy="334" rx="50" ry="18" fill="#2dd4bf" stroke="#0b0b10" stroke-opacity="0.35"/></g>
<g>
  <circle cx="1055" cy="300" r="86" fill="none" stroke="#ffffff" stroke-opacity="0.1" stroke-width="16"/>
  <circle class="ap" cx="1055" cy="300" r="86" fill="none" stroke="#2dd4bf" stroke-width="16" stroke-linecap="round"
    stroke-dasharray="367.4 540.4" transform="rotate(-90 1055 300)"/>
  <text x="1055" y="304" text-anchor="middle" font-family="Inter, 'Segoe UI', -apple-system, system-ui, sans-serif" font-size="48.160000000000004" font-weight="800" fill="#ffffff">24%</text>
  <text x="1055" y="339.56" text-anchor="middle" font-family="Inter, 'Segoe UI', -apple-system, system-ui, sans-serif" font-size="18.92" font-weight="600" fill="#ffffff" fill-opacity="0.6">APR</text>
</g>
<path d="M 640 266 C 667.5 266, 667.5 245, 695 245 C 722.5 245, 722.5 238, 750 238 C 777.5 238, 777.5 210, 805 210 C 832.5 210, 832.5 203, 860 203 C 887.5 203, 887.5 175, 915 175 C 942.5 175, 942.5 154, 970 154 L 970 280 L 640 280 Z" fill="url(#accSoft)"/><path d="M 640 266 C 667.5 266, 667.5 245, 695 245 C 722.5 245, 722.5 238, 750 238 C 777.5 238, 777.5 210, 805 210 C 832.5 210, 832.5 203, 860 203 C 887.5 203, 887.5 175, 915 175 C 942.5 175, 942.5 154, 970 154" fill="none" stroke="#34d399" stroke-width="4" stroke-linecap="round" class="ad" pathLength="1000"/>
<g>
  <rect x="660" y="610" width="222.48" height="33.6" rx="16.8" fill="#2dd4bf" fill-opacity="0.15" stroke="#2dd4bf" stroke-opacity="0.4"/>
  <text x="771.24" y="633.04" text-anchor="middle" font-family="Inter, 'Segoe UI', -apple-system, system-ui, sans-serif" font-size="16" font-weight="700" fill="#2dd4bf">Auto-compound pools</text>
</g></g>
<g>
  <rect x="64" y="52" width="46" height="46" rx="13" fill="url(#acc)"/>
  <text x="87" y="84" text-anchor="middle" font-family="Inter, 'Segoe UI', -apple-system, system-ui, sans-serif" font-size="26" font-weight="900" fill="#fff">M</text>
  <text x="124" y="82" font-family="Inter, 'Segoe UI', -apple-system, system-ui, sans-serif" font-size="18" font-weight="800" letter-spacing="3.5" fill="#ffffff" fill-opacity="0.9">MASHDIV</text>
</g>
<g>
  <rect x="64" y="206" width="80.5" height="31.5" rx="15.75" fill="#2dd4bf" fill-opacity="0.15" stroke="#2dd4bf" stroke-opacity="0.4"/>
  <text x="104.25" y="227.6" text-anchor="middle" font-family="Inter, 'Segoe UI', -apple-system, system-ui, sans-serif" font-size="15" font-weight="700" fill="#2dd4bf">ADDON</text>
</g>
<text x="64" y="300" font-family="Inter, 'Segoe UI', -apple-system, system-ui, sans-serif" font-size="76" font-weight="800" letter-spacing="-2" fill="#ffffff">Staking</text>
<text x="64" y="356" font-family="Inter, 'Segoe UI', -apple-system, system-ui, sans-serif" font-size="27" fill="#ffffff" fill-opacity="0.72">Staking pools with APR rewards</text>
<text x="64" y="394" font-family="Inter, 'Segoe UI', -apple-system, system-ui, sans-serif" font-size="27" fill="#ffffff" fill-opacity="0.72">and auto-compound.</text>
<g>
  <circle class="ab" cx="72" cy="642" r="5" fill="#34d399"/>
  <text x="88" y="649" font-family="Inter, 'Segoe UI', -apple-system, system-ui, sans-serif" font-size="19" fill="#ffffff" fill-opacity="0.55">Instant delivery · Lifetime updates</text>
</g>
</svg>