<svg xmlns="http://www.w3.org/2000/svg" viewBox="0 0 1200 720" width="1200" height="720" role="img" aria-label="Web3 Wallet &amp; On-Chain Trading">
<style>
@keyframes fl{0%,100%{transform:translateY(0)}50%{transform:translateY(-7px)}}
@keyframes pu{0%,100%{opacity:1}50%{opacity:.55}}
@keyframes bl{0%,100%{opacity:1}50%{opacity:.35}}
@keyframes ty{0%,100%{transform:translateY(0);opacity:.45}50%{transform:translateY(-4px);opacity:1}}
@keyframes be{0%,100%{transform:scale(1)}50%{transform:scale(1.05)}}
@keyframes sp{0%,100%{transform:rotate(0)}50%{transform:rotate(180deg)}}
@keyframes ma{to{stroke-dashoffset:-24}}
.af{animation:fl 9s ease-in-out infinite}
.ap{animation:pu 6s ease-in-out infinite}
.ab{animation:bl 4s ease-in-out infinite}
.abe{transform-box:fill-box;transform-origin:center;animation:be 6s ease-in-out infinite}
.as{transform-box:fill-box;transform-origin:center;animation:sp 7s ease-in-out infinite}
.am{stroke-dasharray:6 6;animation:ma 1.6s linear infinite}
.d1{transform-box:fill-box;animation:ty 1.3s ease-in-out infinite}
.d2{transform-box:fill-box;animation:ty 1.3s ease-in-out .18s infinite}
.d3{transform-box:fill-box;animation:ty 1.3s ease-in-out .36s infinite}
@media (prefers-reduced-motion:reduce){.af,.ap,.ab,.abe,.as,.am,.d1,.d2,.d3{animation:none}}
</style>
<defs>
  <linearGradient id="bg" x1="0" y1="0" x2="1" y2="1">
    <stop offset="0" stop-color="#f6f8fb"/>
    <stop offset="1" stop-color="#eceff4"/>
  </linearGradient>
  <linearGradient id="acc" x1="0" y1="0" x2="1" y2="1">
    <stop offset="0" stop-color="#2563eb"/>
    <stop offset="1" stop-color="#7c3aed"/>
  </linearGradient>
  <radialGradient id="glowA" cx="0.5" cy="0.5" r="0.5">
    <stop offset="0" stop-color="#2563eb" stop-opacity="0.22"/>
    <stop offset="1" stop-color="#2563eb" stop-opacity="0"/>
  </radialGradient>
  <radialGradient id="glowB" cx="0.5" cy="0.5" r="0.5">
    <stop offset="0" stop-color="#7c3aed" stop-opacity="0.18"/>
    <stop offset="1" stop-color="#7c3aed" stop-opacity="0"/>
  </radialGradient>
</defs>
<rect width="1200" height="720" fill="url(#bg)"/>
<line x1="40" y1="0" x2="40" y2="720" stroke="#0f172a" stroke-opacity="0.025"/><line x1="88" y1="0" x2="88" y2="720" stroke="#0f172a" stroke-opacity="0.025"/><line x1="136" y1="0" x2="136" y2="720" stroke="#0f172a" stroke-opacity="0.025"/><line x1="184" y1="0" x2="184" y2="720" stroke="#0f172a" stroke-opacity="0.025"/><line x1="232" y1="0" x2="232" y2="720" stroke="#0f172a" stroke-opacity="0.025"/><line x1="280" y1="0" x2="280" y2="720" stroke="#0f172a" stroke-opacity="0.025"/><line x1="328" y1="0" x2="328" y2="720" stroke="#0f172a" stroke-opacity="0.025"/><line x1="376" y1="0" x2="376" y2="720" stroke="#0f172a" stroke-opacity="0.025"/><line x1="424" y1="0" x2="424" y2="720" stroke="#0f172a" stroke-opacity="0.025"/><line x1="472" y1="0" x2="472" y2="720" stroke="#0f172a" stroke-opacity="0.025"/><line x1="520" y1="0" x2="520" y2="720" stroke="#0f172a" stroke-opacity="0.025"/><line x1="568" y1="0" x2="568" y2="720" stroke="#0f172a" stroke-opacity="0.025"/><line x1="616" y1="0" x2="616" y2="720" stroke="#0f172a" stroke-opacity="0.025"/><line x1="664" y1="0" x2="664" y2="720" stroke="#0f172a" stroke-opacity="0.025"/><line x1="712" y1="0" x2="712" y2="720" stroke="#0f172a" stroke-opacity="0.025"/><line x1="760" y1="0" x2="760" y2="720" stroke="#0f172a" stroke-opacity="0.025"/><line x1="808" y1="0" x2="808" y2="720" stroke="#0f172a" stroke-opacity="0.025"/><line x1="856" y1="0" x2="856" y2="720" stroke="#0f172a" stroke-opacity="0.025"/><line x1="904" y1="0" x2="904" y2="720" stroke="#0f172a" stroke-opacity="0.025"/><line x1="952" y1="0" x2="952" y2="720" stroke="#0f172a" stroke-opacity="0.025"/><line x1="1000" y1="0" x2="1000" y2="720" stroke="#0f172a" stroke-opacity="0.025"/><line x1="1048" y1="0" x2="1048" y2="720" stroke="#0f172a" stroke-opacity="0.025"/><line x1="1096" y1="0" x2="1096" y2="720" stroke="#0f172a" stroke-opacity="0.025"/><line x1="1144" y1="0" x2="1144" y2="720" stroke="#0f172a" stroke-opacity="0.025"/><line x1="1192" y1="0" x2="1192" y2="720" stroke="#0f172a" stroke-opacity="0.025"/><line x1="0" y1="40" x2="1200" y2="40" stroke="#0f172a" stroke-opacity="0.025"/><line x1="0" y1="88" x2="1200" y2="88" stroke="#0f172a" stroke-opacity="0.025"/><line x1="0" y1="136" x2="1200" y2="136" stroke="#0f172a" stroke-opacity="0.025"/><line x1="0" y1="184" x2="1200" y2="184" stroke="#0f172a" stroke-opacity="0.025"/><line x1="0" y1="232" x2="1200" y2="232" stroke="#0f172a" stroke-opacity="0.025"/><line x1="0" y1="280" x2="1200" y2="280" stroke="#0f172a" stroke-opacity="0.025"/><line x1="0" y1="328" x2="1200" y2="328" stroke="#0f172a" stroke-opacity="0.025"/><line x1="0" y1="376" x2="1200" y2="376" stroke="#0f172a" stroke-opacity="0.025"/><line x1="0" y1="424" x2="1200" y2="424" stroke="#0f172a" stroke-opacity="0.025"/><line x1="0" y1="472" x2="1200" y2="472" stroke="#0f172a" stroke-opacity="0.025"/><line x1="0" y1="520" x2="1200" y2="520" stroke="#0f172a" stroke-opacity="0.025"/><line x1="0" y1="568" x2="1200" y2="568" stroke="#0f172a" stroke-opacity="0.025"/><line x1="0" y1="616" x2="1200" y2="616" stroke="#0f172a" stroke-opacity="0.025"/><line x1="0" y1="664" x2="1200" y2="664" stroke="#0f172a" stroke-opacity="0.025"/><line x1="0" y1="712" x2="1200" y2="712" stroke="#0f172a" stroke-opacity="0.025"/>
<ellipse class="ap" cx="200" cy="40" rx="560" ry="330" fill="url(#glowA)"/>
<ellipse class="ap" cx="1080" cy="700" rx="520" ry="320" fill="url(#glowB)" style="animation-delay:1.6s"/>
<g opacity="0.97">
<g>
  <rect x="596" y="105" width="560" height="460" rx="18" fill="#334155" opacity="0.14"/>
  <rect x="590" y="95" width="560" height="460" rx="18" fill="#ffffff" fill-opacity="0.94" stroke="#0f172a" stroke-opacity="0.1"/>
  <rect x="590" y="95" width="560" height="46" rx="18" fill="#0f172a" fill-opacity="0.03"/>
  <line x1="590" y1="141" x2="1150" y2="141" stroke="#0f172a" stroke-opacity="0.08"/>
  <circle cx="614" cy="118" r="5.5" fill="#fb7185" opacity="0.9"/>
  <circle cx="633" cy="118" r="5.5" fill="#fbbf24" opacity="0.9"/>
  <circle cx="652" cy="118" r="5.5" fill="#34d399" opacity="0.9"/>
  <text x="670" y="125" font-family="Inter, 'Segoe UI', -apple-system, system-ui, sans-serif" font-size="16" font-weight="600" fill="#0f172a" fill-opacity="0.55">Swap</text>
  <rect x="944" y="105" width="138" height="28" rx="14" fill="#0f172a" fill-opacity="0.05" stroke="#0f172a" stroke-opacity="0.08"/>
  <circle class="ab" cx="962" cy="119" r="4.5" fill="#34d399"/>
  <text x="974" y="124" font-family="Inter, 'Segoe UI', -apple-system, system-ui, sans-serif" font-size="13" fill="#0f172a" fill-opacity="0.55">0x7a3f…9c21</text>
</g>

<g>
  <rect x="622" y="171" width="476" height="112" rx="16" fill="#0f172a" fill-opacity="0.05" stroke="#0f172a" stroke-opacity="0.08"/>
  <text x="642" y="200" font-family="Inter, 'Segoe UI', -apple-system, system-ui, sans-serif" font-size="15" fill="#0f172a" fill-opacity="0.5">You pay</text>
  <text x="642" y="252" font-family="Inter, 'Segoe UI', -apple-system, system-ui, sans-serif" font-size="38" font-weight="800" fill="#0f172a" fill-opacity="0.92">1.25</text>
  <text x="642" y="272" font-family="Inter, 'Segoe UI', -apple-system, system-ui, sans-serif" font-size="13" fill="#0f172a" fill-opacity="0.42">Balance 3.61 ETH</text>
  <rect x="934" y="204" width="148" height="46" rx="23" fill="#0f172a" fill-opacity="0.06" stroke="#0f172a" stroke-opacity="0.1"/>
  <circle cx="960" cy="227" r="14" fill="url(#acc)"/>
  <path d="M960 219 l6 8 -6 5 -6 -5 z" fill="#ffffff" fill-opacity="0.9"/>
  <text x="984" y="234" font-family="Inter, 'Segoe UI', -apple-system, system-ui, sans-serif" font-size="17" font-weight="700" fill="#0f172a" fill-opacity="0.9">ETH</text>
  <path d="M1052 223 l6 6 6 -6" fill="none" stroke="#0f172a" stroke-opacity="0.45" stroke-width="2" stroke-linecap="round" stroke-linejoin="round"/>
</g>

<g>
  <rect x="622" y="303" width="476" height="112" rx="16" fill="#2563eb" fill-opacity="0.1" stroke="#64748b" stroke-opacity="0.45"/>
  <text x="642" y="332" font-family="Inter, 'Segoe UI', -apple-system, system-ui, sans-serif" font-size="15" fill="#0f172a" fill-opacity="0.5">You receive</text>
  <text x="642" y="384" font-family="Inter, 'Segoe UI', -apple-system, system-ui, sans-serif" font-size="38" font-weight="800" fill="#0f172a" fill-opacity="0.92">4,182.60</text>
  <text x="642" y="404" font-family="Inter, 'Segoe UI', -apple-system, system-ui, sans-serif" font-size="13" fill="#0f172a" fill-opacity="0.42">≈ $4,182.60</text>
  <rect x="934" y="336" width="148" height="46" rx="23" fill="#0f172a" fill-opacity="0.06" stroke="#0f172a" stroke-opacity="0.1"/>
  <circle cx="960" cy="359" r="14" fill="#34d399"/>
  
  <text x="960" y="365" font-family="Inter, 'Segoe UI', -apple-system, system-ui, sans-serif" font-size="17" font-weight="800" text-anchor="middle" fill="#065f46">$</text>
  <text x="984" y="366" font-family="Inter, 'Segoe UI', -apple-system, system-ui, sans-serif" font-size="17" font-weight="700" fill="#0f172a" fill-opacity="0.9">USDC</text>
  <path d="M1052 355 l6 6 6 -6" fill="none" stroke="#0f172a" stroke-opacity="0.45" stroke-width="2" stroke-linecap="round" stroke-linejoin="round"/>
</g>

<g class="as">
  <circle cx="860" cy="293" r="22" fill="#ffffff" stroke="#64748b" stroke-opacity="0.55" stroke-width="2"/>
  <path d="M853 284 v13 M849 293 l4 4 4 -4" fill="none" stroke="#64748b" stroke-width="2.2" stroke-linecap="round" stroke-linejoin="round"/>
  <path d="M867 302 v-13 M863 293 l4 -4 4 4" fill="none" stroke="#64748b" stroke-width="2.2" stroke-linecap="round" stroke-linejoin="round"/>
</g>

<g>
  <rect x="622" y="431" width="476" height="38" rx="12" fill="#0f172a" fill-opacity="0.04" stroke="#0f172a" stroke-opacity="0.07"/>
  <circle class="d1" cx="642" cy="450" r="4" fill="#2563eb"/>
  <circle class="d2" cx="658" cy="450" r="4" fill="#5b4fdd"/>
  <circle class="d3" cx="674" cy="450" r="4" fill="#7c3aed"/>
  <line class="am" x1="690" y1="450" x2="716" y2="450" stroke="#64748b" stroke-opacity="0.6" stroke-width="2" stroke-linecap="round"/>
  <text x="728" y="455" font-family="Inter, 'Segoe UI', -apple-system, system-ui, sans-serif" font-size="14" fill="#0f172a" fill-opacity="0.58">3 aggregators quoted · best wins</text>
</g>

<g>
  <rect x="622" y="475" width="476" height="56" rx="16" fill="url(#acc)" fill-opacity="0.95"/>
  <text x="860" y="510" font-family="Inter, 'Segoe UI', -apple-system, system-ui, sans-serif" font-size="20" font-weight="800" text-anchor="middle" fill="#ffffff">Confirm in your wallet</text>
</g>
<text x="860" y="549" font-family="Inter, 'Segoe UI', -apple-system, system-ui, sans-serif" font-size="13" text-anchor="middle" fill="#0f172a" fill-opacity="0.5">Non-custodial · you sign every transaction</text>

<g class="af">
  <rect x="1104" y="150" width="84" height="84" rx="22" fill="url(#acc)" class="abe"/>
  <rect x="1120" y="176" width="52" height="34" rx="9" fill="none" stroke="#ffffff" stroke-width="2.8" stroke-opacity="0.95"/>
  <rect x="1150" y="185" width="28" height="16" rx="8" fill="#ffffff" fill-opacity="0.95"/>
  <circle cx="1163" cy="193" r="3.4" fill="#7c3aed"/>
</g>

<g>
  <rect x="622" y="575" width="146" height="60" rx="14" fill="#ffffff" stroke="#64748b" stroke-opacity="0.4" stroke-width="2"/>
  <text x="695" y="601" font-family="Inter, 'Segoe UI', -apple-system, system-ui, sans-serif" font-size="15" font-weight="700" text-anchor="middle" fill="#0f172a" fill-opacity="0.9">Non-custodial</text>
  <text x="695" y="622" font-family="Inter, 'Segoe UI', -apple-system, system-ui, sans-serif" font-size="12.5" text-anchor="middle" fill="#0f172a" fill-opacity="0.5">You hold the keys</text>
</g>
<g>
  <rect x="787" y="575" width="146" height="60" rx="14" fill="url(#acc)" fill-opacity="0.9"/>
  <text x="860" y="601" font-family="Inter, 'Segoe UI', -apple-system, system-ui, sans-serif" font-size="15" font-weight="700" text-anchor="middle" fill="#ffffff">6 EVM chains</text>
  <text x="860" y="622" font-family="Inter, 'Segoe UI', -apple-system, system-ui, sans-serif" font-size="12.5" text-anchor="middle" fill="#ffffff" fill-opacity="0.8">One integration</text>
</g>
<g>
  <rect x="952" y="575" width="146" height="60" rx="14" fill="#ffffff" stroke="#64748b" stroke-opacity="0.4" stroke-width="2"/>
  <text x="1025" y="601" font-family="Inter, 'Segoe UI', -apple-system, system-ui, sans-serif" font-size="15" font-weight="700" text-anchor="middle" fill="#0f172a" fill-opacity="0.9">Best price</text>
  <text x="1025" y="622" font-family="Inter, 'Segoe UI', -apple-system, system-ui, sans-serif" font-size="12.5" text-anchor="middle" fill="#0f172a" fill-opacity="0.5">Aggregated routes</text>
</g>
</g>
<g>
  <rect x="64" y="52" width="46" height="46" rx="13" fill="url(#acc)"/>
  <text x="87" y="84" font-family="Inter, 'Segoe UI', -apple-system, system-ui, sans-serif" font-size="26" font-weight="900" text-anchor="middle" fill="#ffffff">M</text>
  <text x="124" y="82" font-family="Inter, 'Segoe UI', -apple-system, system-ui, sans-serif" font-size="18" font-weight="800" letter-spacing="3.5" fill="#0f172a" fill-opacity="0.9">MASHDIV</text>
</g>
<g>
  <rect x="64" y="206" width="80.5" height="31.5" rx="15.75" fill="#7c3aed" fill-opacity="0.15" stroke="#7c3aed" stroke-opacity="0.4"/>
  <text x="104.25" y="227.6" font-family="Inter, 'Segoe UI', -apple-system, system-ui, sans-serif" font-size="15" font-weight="700" text-anchor="middle" fill="#7c3aed">ADDON</text>
</g>

<text x="64" y="300" font-family="Inter, 'Segoe UI', -apple-system, system-ui, sans-serif" font-size="64" font-weight="800" letter-spacing="-2" fill="#0f172a">Web3 Wallet</text>
<text x="64" y="358" font-family="Inter, 'Segoe UI', -apple-system, system-ui, sans-serif" font-size="44" font-weight="800" letter-spacing="-1.5" fill="#0f172a">&amp; On-Chain Trading</text>
<text x="64" y="416" font-family="Inter, 'Segoe UI', -apple-system, system-ui, sans-serif" font-size="27" fill="#0f172a" fill-opacity="0.72">Users bring their own wallet.</text>
<text x="64" y="454" font-family="Inter, 'Segoe UI', -apple-system, system-ui, sans-serif" font-size="27" fill="#0f172a" fill-opacity="0.72">You route the trade, and take a fee.</text>
<g>
  <circle class="ab" cx="72" cy="642" r="5" fill="#34d399"/>
  <text x="88" y="649" font-family="Inter, 'Segoe UI', -apple-system, system-ui, sans-serif" font-size="19" fill="#0f172a" fill-opacity="0.55">Instant delivery · Lifetime updates</text>
</g>
</svg>
